<?xml version="1.0" encoding="UTF-8" standalone="no"?>
<svg
   width="50"
   height="50"
   viewBox="0 0 50 50"
   role="img"
   version="1.1"
   id="svg6"
   sodipodi:docname="github.svg"
   inkscape:version="1.1 (c4e8f9ed74, 2021-05-24)"
   xmlns:inkscape="http://www.inkscape.org/namespaces/inkscape"
   xmlns:sodipodi="http://sodipodi.sourceforge.net/DTD/sodipodi-0.dtd"
   xmlns="http://www.w3.org/2000/svg"
   xmlns:svg="http://www.w3.org/2000/svg"
   xmlns:rdf="http://www.w3.org/1999/02/22-rdf-syntax-ns#"
   xmlns:cc="http://creativecommons.org/ns#"
   xmlns:dc="http://purl.org/dc/elements/1.1/">
  <defs
     id="defs10" />
  <sodipodi:namedview
     id="namedview8"
     pagecolor="#505050"
     bordercolor="#eeeeee"
     borderopacity="1"
     inkscape:pageshadow="0"
     inkscape:pageopacity="0"
     inkscape:pagecheckerboard="0"
     showgrid="false"
     inkscape:zoom="5.3541667"
     inkscape:cx="6.0700389"
     inkscape:cy="13.2607"
     inkscape:window-width="1366"
     inkscape:window-height="695"
     inkscape:window-x="0"
     inkscape:window-y="0"
     inkscape:window-maximized="1"
     inkscape:current-layer="svg6"
     width="50px" />
  <title
     id="title2">GitHub icon</title>
  <path
     id="path1748"
     style="fill:#f2f2f2;fill-opacity:1;stroke:none;stroke-width:3.01377;stroke-linecap:square;stroke-miterlimit:0;stroke-dasharray:24.1102, 3.01377;paint-order:markers stroke fill"
     d="m 11.046138,2.3406094 c -0.328939,0.015396 -0.486613,0.066998 -0.486613,0.066998 -1.63106,4.2863469 -0.6093751,7.4514752 -0.267991,8.2371766 -1.9471582,2.178178 -3.1206768,4.953089 -3.1206768,8.350013 0,11.922943 7.0799498,14.599787 13.8191328,15.377707 -0.867369,0.777924 -1.648665,2.148681 -1.921773,4.160902 -1.734746,0.796077 -6.130835,2.170067 -8.836629,-2.588222 0,0 -1.6003427,-2.987492 -4.6475156,-3.205305 0,0 -2.9603501,-0.03921 -0.2115713,1.890036 0,0 1.9938493,0.960902 3.3745622,4.552309 0,0 1.7813667,6.052394 10.2224197,4.175007 0.01258,2.593077 0.03878,4.550256 0.03878,5.289283 a 29.815025,29.816106 0 0 0 7.521359,1.019068 29.815025,29.816106 0 0 0 7.436733,-0.997909 c -3.67e-4,-0.01517 -0.0036,-0.03077 -0.0036,-0.04584 -2e-6,-1.011298 0.03526,-4.354797 0.03526,-8.519271 0,-2.914614 -0.983107,-4.82476 -2.045191,-5.758264 6.751828,-0.76496 13.843816,-3.395439 13.843816,-15.349499 0,-3.396924 -1.175587,-6.171835 -3.110097,-8.350013 0.303453,-0.7857011 1.327804,-3.9508294 -0.303253,-8.2371763 0,-1e-7 -2.542088,-0.8332474 -8.307699,3.1912005 C 31.648052,4.9064573 29.070195,4.5635477 26.490844,4.5480032 23.911493,4.5635658 21.330107,4.9064573 18.902487,5.5988075 14.549833,2.5804714 12.032954,2.2944203 11.046138,2.3406094 Z" />
  <metadata
     id="metadata7197">
    <rdf:RDF>
      <cc:Work
         rdf:about="">
        <dc:title>GitHub icon</dc:title>
      </cc:Work>
    </rdf:RDF>
  </metadata>
</svg>
