<?xml version="1.0" encoding="UTF-8" standalone="no"?>
<svg
   width="35"
   height="35"
   viewBox="0 0 35 35"
   role="img"
   version="1.1"
   id="svg6"
   sodipodi:docname="github-svgrepo-com.svg"
   inkscape:version="1.1 (c4e8f9ed74, 2021-05-24)"
   xmlns:inkscape="http://www.inkscape.org/namespaces/inkscape"
   xmlns:sodipodi="http://sodipodi.sourceforge.net/DTD/sodipodi-0.dtd"
   xmlns="http://www.w3.org/2000/svg"
   xmlns:svg="http://www.w3.org/2000/svg"
   xmlns:rdf="http://www.w3.org/1999/02/22-rdf-syntax-ns#"
   xmlns:cc="http://creativecommons.org/ns#"
   xmlns:dc="http://purl.org/dc/elements/1.1/">
  <defs
     id="defs10" />
  <sodipodi:namedview
     id="namedview8"
     pagecolor="#505050"
     bordercolor="#eeeeee"
     borderopacity="1"
     inkscape:pageshadow="0"
     inkscape:pageopacity="0"
     inkscape:pagecheckerboard="0"
     showgrid="false"
     inkscape:zoom="5.3541667"
     inkscape:cx="9.618677"
     inkscape:cy="26.988327"
     inkscape:window-width="1366"
     inkscape:window-height="703"
     inkscape:window-x="0"
     inkscape:window-y="32"
     inkscape:window-maximized="1"
     inkscape:current-layer="svg6" />
  <title
     id="title2">GitHub icon</title>
  <ellipse
     style="fill:#f2f2f2;fill-opacity:1;stroke:none;stroke-width:1.6693;stroke-linecap:square;stroke-miterlimit:0;stroke-dasharray:13.3544, 1.6693;paint-order:markers stroke fill"
     id="path1748"
     cx="17.5"
     cy="17.5"
     inkscape:export-filename="/home/mirai/PycharmProjects/EditorAUR/icon/github.png"
     inkscape:export-xdpi="96"
     inkscape:export-ydpi="96"
     rx="16.514282"
     ry="16.514881" />
  <path
     d="m 17.499998,0.69200138 c -9.2864165,0 -16.80799541,7.71713302 -16.80799541,17.23535862 0,7.616593 4.81549111,14.075546 11.49246741,16.352049 0.840401,0.1623 1.148546,-0.370559 1.148546,-0.828733 0,-0.409341 -0.01401,-1.493729 -0.02102,-2.930012 -4.6754254,1.039868 -5.6614933,-2.31241 -5.6614933,-2.31241 -0.7647648,-1.989249 -1.86989,-2.520673 -1.86989,-2.520673 -1.5225246,-1.068592 0.1176663,-1.047047 0.1176663,-1.047047 1.6878025,0.120645 2.5744242,1.775242 2.5744242,1.775242 1.4987159,2.635574 3.9344698,1.874347 4.8953298,1.433407 0.151272,-1.114552 0.584078,-1.874345 1.064506,-2.30523 -3.732775,-0.430883 -7.656042,-1.913124 -7.656042,-8.517138 0,-1.881527 0.6513096,-3.418347 1.7298235,-4.624822 C 8.3172309,11.9668 7.7499605,10.214538 8.65339,7.8403673 c 0,0 1.40767,-0.4624821 4.622199,1.7666245 1.344638,-0.3834867 2.773318,-0.5730756 4.201998,-0.5816935 1.42868,0.00861 2.857359,0.1982068 4.201998,0.5816935 3.193521,-2.2291066 4.601191,-1.7666245 4.601191,-1.7666245 0.903428,2.3741707 0.33616,4.1264327 0.16808,4.5616257 1.071508,1.206475 1.72282,2.743295 1.72282,4.624822 0,6.62125 -3.928871,8.079073 -7.668649,8.502777 0.588279,0.51706 1.134538,1.574162 1.134538,3.188541 0,2.306666 -0.02101,4.159467 -0.02101,4.719616 0,0.45243 0.294141,0.991035 1.15555,0.81868 C 29.496708,31.995724 34.307997,25.532463 34.307997,17.92736 34.307994,8.4091344 26.782213,0.69200138 17.499998,0.69200138"
     id="path4"
     style="fill:#31004c;fill-opacity:1;stroke:#31004c;stroke-width:0.384005;stroke-miterlimit:4;stroke-dasharray:none;stroke-opacity:1"
     inkscape:export-filename="/home/mirai/PycharmProjects/EditorAUR/icon/github.png"
     inkscape:export-xdpi="96"
     inkscape:export-ydpi="96" />
  <metadata
     id="metadata7197">
    <rdf:RDF>
      <cc:Work
         rdf:about="">
        <dc:title>GitHub icon</dc:title>
      </cc:Work>
    </rdf:RDF>
  </metadata>
</svg>
