<?xml version="1.0" encoding="UTF-8" standalone="no"?>
<!-- Generator: Adobe Illustrator 19.0.0, SVG Export Plug-In . SVG Version: 6.00 Build 0)  -->

<svg
   version="1.1"
   id="Layer_1"
   x="0px"
   y="0px"
   viewBox="0 0 50 50"
   xml:space="preserve"
   sodipodi:docname="telegram.svg"
   width="50"
   height="50"
   inkscape:version="1.1 (c4e8f9ed74, 2021-05-24)"
   xmlns:inkscape="http://www.inkscape.org/namespaces/inkscape"
   xmlns:sodipodi="http://sodipodi.sourceforge.net/DTD/sodipodi-0.dtd"
   xmlns="http://www.w3.org/2000/svg"
   xmlns:svg="http://www.w3.org/2000/svg"><defs
   id="defs49" /><sodipodi:namedview
   id="namedview47"
   pagecolor="#505050"
   bordercolor="#eeeeee"
   borderopacity="1"
   inkscape:pageshadow="0"
   inkscape:pageopacity="0"
   inkscape:pagecheckerboard="0"
   showgrid="false"
   width="50px"
   inkscape:zoom="8.03125"
   inkscape:cx="43.891051"
   inkscape:cy="26.645914"
   inkscape:window-width="1366"
   inkscape:window-height="695"
   inkscape:window-x="0"
   inkscape:window-y="0"
   inkscape:window-maximized="1"
   inkscape:current-layer="Layer_1" />






<g
   id="g1018"
   transform="matrix(2.1324436,0,0,2.1324436,-11.105961,-12.571096)"><path
     style="fill:#e5e5e5;stroke-width:0.0664062"
     d="M 25.75184,7.7418672 C 25.586754,7.6296406 25.374918,7.6126406 25.194094,7.6967773 L 6.9265977,16.200629 c -0.3209415,0.14948 -0.5237461,0.476266 -0.515711,0.830144 0.00777,0.347039 0.2178125,0.65875 0.5355664,0.797872 L 23.787941,25.16368 c 0.562329,0.255597 1.224465,-0.146758 1.26059,-0.760551 L 25.99907,8.2437656 C 26.01069,8.0446797 25.91686,7.8539609 25.75184,7.7418672 Z"
     id="path6" /><polygon
     style="fill:#cccccc"
     points="188.772,408 379.168,108.432 171.631,293.421 "
     id="polygon8"
     transform="matrix(0.06640625,0,0,0.06640625,0.5,0.5)" /><path
     style="fill:#ffffff;stroke-width:0.0664062"
     d="M 25.194227,7.6967773 6.9265977,16.200629 c -0.3145665,0.146426 -0.5196954,0.472879 -0.5159102,0.819785 0.00385,0.347504 0.2175469,0.668977 0.5356992,0.808231 L 11.897438,19.984922 25.679125,7.7005625 c -0.151805,-0.07318 -0.329707,-0.076035 -0.484898,-0.00379 z"
     id="path10" /><polygon
     style="fill:#e5e5e5"
     points="188.772,408 379.168,108.432 211.418,310.749 "
     id="polygon12"
     transform="matrix(0.06640625,0,0,0.06640625,0.5,0.5)" /><path
     style="fill:#ffffff;stroke-width:0.0664062"
     d="M 25.75184,7.7418672 C 25.72853,7.7259961 25.70403,7.7125156 25.67912,7.7005625 L 14.539472,21.135676 23.78787,25.16368 c 0.562328,0.255597 1.224465,-0.146758 1.26059,-0.760551 L 25.998999,8.2437656 c 0.01169,-0.1990859 -0.08215,-0.3898047 -0.247164,-0.5018984 z"
     id="path14" /></g>
<g
   id="g16">
</g>
<g
   id="g18">
</g>
<g
   id="g20">
</g>
<g
   id="g22">
</g>
<g
   id="g24">
</g>
<g
   id="g26">
</g>
<g
   id="g28">
</g>
<g
   id="g30">
</g>
<g
   id="g32">
</g>
<g
   id="g34">
</g>
<g
   id="g36">
</g>
<g
   id="g38">
</g>
<g
   id="g40">
</g>
<g
   id="g42">
</g>
<g
   id="g44">
</g>
<g
   id="g60"
   transform="translate(-128.06809,178.73346)"><ellipse
     style="fill:#f2f2f2;fill-opacity:1;stroke:none;stroke-width:1.6693;stroke-linecap:square;stroke-miterlimit:0;stroke-dasharray:13.3544, 1.6693;paint-order:markers stroke fill"
     id="path1748"
     cx="17.5"
     cy="17.5"
     inkscape:export-filename="/home/mirai/PycharmProjects/EditorAUR/icon/github.png"
     inkscape:export-xdpi="96"
     inkscape:export-ydpi="96"
     rx="16.514282"
     ry="16.514881" /><path
     d="m 17.499998,0.69200138 c -9.2864165,0 -16.80799541,7.71713302 -16.80799541,17.23535862 0,7.616593 4.81549111,14.075546 11.49246741,16.352049 0.840401,0.1623 1.148546,-0.370559 1.148546,-0.828733 0,-0.409341 -0.01401,-1.493729 -0.02102,-2.930012 -4.6754254,1.039868 -5.6614933,-2.31241 -5.6614933,-2.31241 -0.7647648,-1.989249 -1.86989,-2.520673 -1.86989,-2.520673 -1.5225246,-1.068592 0.1176663,-1.047047 0.1176663,-1.047047 1.6878025,0.120645 2.5744242,1.775242 2.5744242,1.775242 1.4987159,2.635574 3.9344698,1.874347 4.8953298,1.433407 0.151272,-1.114552 0.584078,-1.874345 1.064506,-2.30523 -3.732775,-0.430883 -7.656042,-1.913124 -7.656042,-8.517138 0,-1.881527 0.6513096,-3.418347 1.7298235,-4.624822 C 8.3172309,11.9668 7.7499605,10.214538 8.65339,7.8403673 c 0,0 1.40767,-0.4624821 4.622199,1.7666245 1.344638,-0.3834867 2.773318,-0.5730756 4.201998,-0.5816935 1.42868,0.00861 2.857359,0.1982068 4.201998,0.5816935 3.193521,-2.2291066 4.601191,-1.7666245 4.601191,-1.7666245 0.903428,2.3741707 0.33616,4.1264327 0.16808,4.5616257 1.071508,1.206475 1.72282,2.743295 1.72282,4.624822 0,6.62125 -3.928871,8.079073 -7.668649,8.502777 0.588279,0.51706 1.134538,1.574162 1.134538,3.188541 0,2.306666 -0.02101,4.159467 -0.02101,4.719616 0,0.45243 0.294141,0.991035 1.15555,0.81868 C 29.496708,31.995724 34.307997,25.532463 34.307997,17.92736 34.307994,8.4091344 26.782213,0.69200138 17.499998,0.69200138"
     id="path4-3"
     style="fill:#31004c;fill-opacity:1;stroke:#31004c;stroke-width:0.384005;stroke-miterlimit:4;stroke-dasharray:none;stroke-opacity:1"
     inkscape:export-filename="/home/mirai/PycharmProjects/EditorAUR/icon/github.png"
     inkscape:export-xdpi="96"
     inkscape:export-ydpi="96" /></g></svg>
