<?xml version="1.0" encoding="UTF-8" standalone="no"?>
<!-- Svg Vector Icons : http://www.onlinewebfonts.com/icon -->

<svg
   version="1.1"
   x="0px"
   y="0px"
   viewBox="0 0 1000 1000"
   enable-background="new 0 0 1000 1000"
   xml:space="preserve"
   id="svg10"
   sodipodi:docname="about.svg"
   inkscape:version="1.1 (c4e8f9ed74, 2021-05-24)"
   xmlns:inkscape="http://www.inkscape.org/namespaces/inkscape"
   xmlns:sodipodi="http://sodipodi.sourceforge.net/DTD/sodipodi-0.dtd"
   xmlns="http://www.w3.org/2000/svg"
   xmlns:svg="http://www.w3.org/2000/svg"><defs
   id="defs14" /><sodipodi:namedview
   id="namedview12"
   pagecolor="#ffffff"
   bordercolor="#666666"
   borderopacity="1.0"
   inkscape:pageshadow="2"
   inkscape:pageopacity="0.0"
   inkscape:pagecheckerboard="0"
   showgrid="false"
   inkscape:zoom="0.14375"
   inkscape:cx="-514.78261"
   inkscape:cy="166.95652"
   inkscape:window-width="1366"
   inkscape:window-height="695"
   inkscape:window-x="0"
   inkscape:window-y="0"
   inkscape:window-maximized="1"
   inkscape:current-layer="svg10" />
<metadata
   id="metadata2"> Svg Vector Icons : http://www.onlinewebfonts.com/icon </metadata>
<g
   id="g8"
   style="fill:#808080;fill-opacity:1"><path
     d="M500,892L500,892c216.5,0,392-175.5,392-392c0-216.5-175.5-392-392-392c-216.5,0-392,175.5-392,392C108,716.5,283.5,892,500,892L500,892z M500,990L500,990C229.4,990,10,770.6,10,500S229.4,10,500,10s490,219.4,490,490S770.6,990,500,990L500,990z"
     id="path4"
     style="fill:#808080;fill-opacity:1" /><path
     d="M431.4,308.9c0,40.6,32.9,73.5,73.5,73.5c40.6,0,73.5-32.9,73.5-73.5c0-40.6-32.9-73.5-73.5-73.5C464.3,235.4,431.4,268.3,431.4,308.9z M509.8,431.4c27.1,0,49,22,49,49v245.1c0,27-22,49-49,49c-27.1,0-49-22-49-49V480.4C460.8,453.3,482.8,431.4,509.8,431.4z"
     id="path6"
     style="fill:#808080;fill-opacity:1" /></g>
</svg>
